<svg xmlns="http://www.w3.org/2000/svg" width="53" height="19" fill="#fff" xmlns:v="https://vecta.io/nano"><path d="M37.796 7.289h-1.871v6.394c0 .12-.103.222-.223.222H34.26c-.12 0-.223-.103-.223-.222V7.289H32.15c-.052 0-.12-.017-.154-.051s-.069-.085-.069-.154V5.955c0-.051.017-.12.069-.154.034-.034.103-.068.154-.051h5.646c.12 0 .223.085.223.205v1.128c0 .12-.103.205-.223.205zm6.007 6.565c-.738.103-1.493.154-2.231.137-1.424 0-2.677-.359-2.677-2.359V7.99c0-2 1.27-2.342 2.694-2.342.738-.017 1.476.034 2.214.137.154.017.223.085.223.222v1.026c0 .12-.103.222-.223.222h-2.317c-.515 0-.704.171-.704.752v.992h2.935c.12 0 .223.103.223.222v1.043c0 .12-.103.222-.223.222h-2.935v1.163c0 .564.189.752.704.752h2.317c.12 0 .223.102.223.222v1.026c0 .12-.069.188-.223.205zm8.306.051h-1.751c-.12.017-.24-.051-.292-.171l-1.527-2.393-1.373 2.342c-.069.137-.154.222-.275.222h-1.63c-.034 0-.086 0-.12-.034s-.051-.068-.051-.12c0-.034.017-.051.017-.068l2.386-3.966-2.42-3.761c-.017-.017-.017-.051-.017-.068 0-.085.086-.154.172-.137h1.802c.12 0 .206.103.275.205l1.407 2.223 1.373-2.223a.34.34 0 0 1 .275-.205h1.63c.086 0 .172.051.172.137 0 .017-.017.051-.017.068l-2.403 3.795 2.506 3.932c.017.034.034.068.034.103-.017.068-.069.12-.172.12zM29.283 5.767c-.086 0-.154.051-.172.137l-1.596 5.898c-.017.12-.051.171-.154.171s-.137-.051-.154-.171l-1.596-5.898c-.017-.085-.086-.137-.172-.137H23.86c-.052 0-.103.017-.137.068-.034.034-.052.085-.034.137l1.974 6.839c.257.803.892 1.197 1.699 1.197a1.7 1.7 0 0 0 1.699-1.197C29.095 12.726 31 5.972 31 5.972c.017-.051 0-.103-.034-.137s-.086-.068-.137-.068h-1.545zM20.359.279H3.935a1.68 1.68 0 0 0-1.442.821 1.68 1.68 0 0 0-.051 1.658L4.089 5.87H1.103c-.378 0-.738.188-.944.513s-.206.735-.034 1.077l5.286 9.95c.189.359.566.581.961.581s.772-.222.961-.581l1.442-2.701 1.802 3.402a1.7 1.7 0 0 0 2.986 0l8.238-15.438c.275-.513.257-1.128-.052-1.607-.275-.496-.807-.786-1.39-.786zm-7.345 6.514L9.41 13.529a.69.69 0 0 1-.635.376c-.275 0-.515-.154-.635-.376L4.587 6.861c-.103-.205-.103-.445.017-.65s.343-.325.566-.325h7.277c.223 0 .429.103.532.291.137.188.137.427.034.615z"/></svg>