<svg xmlns="http://www.w3.org/2000/svg" width="18" height="18" fill="none" xmlns:v="https://vecta.io/nano"><g clip-path="url(#A)"><path d="M12.021 2.06C9.275-.686 4.806-.686 2.06 2.06s-2.745 7.215 0 9.962c2.445 2.445 6.254 2.707 8.998.798.058.273.19.534.402.746l3.999 3.999c.583.582 1.524.582 2.104 0s.582-1.524 0-2.104l-3.999-4c-.211-.211-.473-.344-.746-.401 1.91-2.745 1.648-6.553-.798-8.999zm-1.263 8.699c-2.05 2.05-5.386 2.05-7.436 0a5.27 5.27 0 0 1 0-7.436c2.049-2.049 5.386-2.049 7.436 0s2.05 5.386 0 7.436z" fill="#000"/></g><defs><clipPath id="A"><path fill="#fff" d="M0 0h18v18H0z"/></clipPath></defs></svg>