<svg xmlns="http://www.w3.org/2000/svg" width="18" height="18" fill="none" xmlns:v="https://vecta.io/nano"><g clip-path="url(#A)"><path d="M17.872 4.435a.53.53 0 0 0-.398-.181H4.102l-.381-2.927C3.596.558 2.939 0 2.16 0H.528C.237 0 .001.236.001.527s.236.527.527.527H2.16c.26 0 .478.186.518.426l.436 3.35.006.041.983 7.5a1.55 1.55 0 0 0 .161.45A1.58 1.58 0 0 0 3.2 14.309c0 .872.71 1.575 1.582 1.575h.624c-.059.166-.097.349-.097.534 0 .872.71 1.582 1.582 1.582s1.582-.71 1.582-1.582c0-.186-.038-.369-.097-.534h3.394c-.059.166-.097.349-.097.534 0 .872.71 1.582 1.582 1.582s1.582-.71 1.582-1.582c0-.186-.038-.362-.097-.527h1.679c.291 0 .527-.236.527-.527s-.236-.527-.527-.527H4.782a.53.53 0 0 1-.527-.527c0-.291.236-.527.575-.529l3.204-.291 7.621-.69c.717-.065 1.3-.606 1.42-1.329l.921-6.615a.53.53 0 0 0-.124-.419zM5.712 12.64c-.281.031-.524-.168-.566-.423l-.627-4.798h1.888l.436 5.119-1.131.103zm4.378-.395l-1.959.175h0l-.031.003-.207.019-.427-5.023h2.625v4.827zm3.204-.291l-2.149.195V7.418h2.584l-.434 4.536zm2.738-.644a.53.53 0 0 1-.473.438l-1.197.109.425-4.438h1.784l-.54 3.891z" fill="#000"/></g><defs><clipPath id="A"><path fill="#fff" d="M0 0h18v18H0z"/></clipPath></defs></svg>