<svg xmlns="http://www.w3.org/2000/svg" width="76" height="18" fill="none" xmlns:v="https://vecta.io/nano"><path d="M58.851 17.957h-2.662V5.443h2.662v12.514zM5.779 8.008a2.82 2.82 0 0 0-1.198.249c-.379.17-.719.422-1 .74-.599.652-.898 1.555-.898 2.696s.299 2.066.908 2.729c.285.321.63.576 1.014.748a2.86 2.86 0 0 0 1.215.252c.784 0 1.414-.228 1.888-.674.441-.405.766-.933.939-1.522L11 14.13c-.309 1.055-.908 1.968-1.795 2.729S7.192 18 5.82 18a5.41 5.41 0 0 1-4.148-1.805C.557 14.988 0 13.488 0 11.694c0-1.816.547-3.316 1.651-4.501S4.117 5.41 5.758 5.41c1.403 0 2.549.381 3.436 1.142.841.697 1.446 1.662 1.723 2.751l-2.404.924a3.22 3.22 0 0 0-.887-1.566c-.453-.435-1.062-.652-1.847-.652zm9.639 6.382a3.19 3.19 0 0 0 1.039.739 3.06 3.06 0 0 0 2.459.006c.39-.17.744-.42 1.042-.734.619-.663.929-1.577.929-2.762 0-1.163-.309-2.066-.929-2.718-.606-.627-1.421-.978-2.27-.978s-1.664.351-2.27.978c-.619.652-.929 1.555-.929 2.718s.31 2.087.929 2.751zm2.27-8.98c1.723 0 3.147.587 4.262 1.761s1.682 2.664 1.682 4.479-.557 3.305-1.682 4.49-2.538 1.772-4.262 1.772c-1.703 0-3.116-.587-4.241-1.772s-1.682-2.685-1.682-4.49.557-3.294 1.682-4.479 2.528-1.761 4.241-1.761zm12.889.076v2.859a6 6 0 0 0-.877-.076c-2.023 0-3.024 1.044-3.024 3.36v6.284h-2.683V5.443h2.611v2c.257-.63.703-1.153 1.269-1.489.604-.369 1.293-.557 1.991-.544a3.11 3.11 0 0 1 .712.076zm3.663 4.882h5.975a2.72 2.72 0 0 0-.227-1.018 2.6 2.6 0 0 0-.588-.842c-.506-.5-1.238-.75-2.188-.75-.867 0-1.569.261-2.095.783s-.826 1.135-.877 1.827zm6.295 3.066l2.446.75c-.351 1.076-1.001 1.968-1.961 2.675s-2.136 1.055-3.539 1.055c-1.734 0-3.199-.576-4.406-1.718s-1.816-2.674-1.816-4.599c0-1.805.588-3.294 1.765-4.447 1.115-1.133 2.609-1.758 4.159-1.74 1.868 0 3.323.554 4.375 1.653s1.578 2.588 1.578 4.462c0 .5-.021.794-.072.892h-8.895c.011.421.107.834.281 1.213a2.95 2.95 0 0 0 .73.983c.643.58 1.466.889 2.311.87 1.559.007 2.581-.678 3.045-2.048zm5.892 4.523h-2.724V0h2.745v7.23c.289-.5.764-.924 1.424-1.261.709-.353 1.486-.527 2.27-.511 1.703 0 3.034.576 3.994 1.74s1.434 2.642 1.434 4.447c0 1.837-.506 3.338-1.507 4.523s-2.343 1.761-4.014 1.761-2.879-.62-3.622-1.87v1.898zm5.438-3.555c.588-.674.877-1.587.877-2.74s-.289-2.055-.867-2.718-1.341-.989-2.291-.989c-.918 0-1.672.326-2.27.989s-.887 1.566-.887 2.718.299 2.044.887 2.729 1.352 1.022 2.27 1.022c.939 0 1.692-.337 2.28-1.011zm19.575 3.544H59.697v-2.457l7.419-7.567h-7.543V5.443h11.846v2.385l-7.512 7.632h7.533v2.49-.004z" fill="#fff"/><path d="M72.75 17.425c-.178-.182-.319-.4-.413-.64s-.141-.499-.136-.759a2.01 2.01 0 0 1 .136-.764 1.94 1.94 0 0 1 .414-.646c.171-.19.379-.341.61-.441s.479-.15.729-.144a1.87 1.87 0 0 1 1.35.585c.358.374.559.881.56 1.41.006.261-.041.521-.137.762a1.87 1.87 0 0 1-.423.638 1.86 1.86 0 0 1-.619.431c-.232.099-.48.148-.731.144a1.76 1.76 0 0 1-.727-.143c-.23-.099-.439-.246-.613-.432z" fill="#bfbfbf"/></svg>