<svg xmlns="http://www.w3.org/2000/svg" width="181" height="41" fill="none" xmlns:v="https://vecta.io/nano"><path d="M140.158 40.901h-6.341V12.397h6.341v28.504zM13.762 18.242c-.98-.013-1.953.18-2.854.568s-1.713.962-2.381 1.685c-1.425 1.486-2.138 3.541-2.138 6.142s.713 4.705 2.163 6.216a7.13 7.13 0 0 0 2.415 1.705 7.08 7.08 0 0 0 2.893.574c1.868 0 3.367-.52 4.497-1.535a7.56 7.56 0 0 0 2.236-3.467l5.603 2.056c-.737 2.402-2.163 4.482-4.276 6.216S17.129 41 13.861 41c-3.932 0-7.225-1.362-9.879-4.111S0 30.723 0 26.637c0-4.136 1.303-7.553 3.932-10.252s5.874-4.061 9.781-4.061c3.342 0 6.07.867 8.184 2.6a11.89 11.89 0 0 1 4.104 6.266l-5.726 2.105a7.25 7.25 0 0 0-2.113-3.566c-1.079-.991-2.529-1.486-4.399-1.486zm22.957 14.536a7.62 7.62 0 0 0 2.475 1.684 7.57 7.57 0 0 0 5.857.013c.929-.387 1.772-.956 2.482-1.673 1.474-1.511 2.212-3.591 2.212-6.29 0-2.65-.737-4.705-2.212-6.191-1.443-1.428-3.384-2.229-5.407-2.229a7.68 7.68 0 0 0-5.407 2.229c-1.474 1.486-2.212 3.541-2.212 6.191s.737 4.755 2.212 6.265zm5.407-20.455c4.104 0 7.496 1.337 10.15 4.012s4.006 6.067 4.006 10.203-1.327 7.528-4.006 10.228-6.046 4.037-10.15 4.037c-4.055 0-7.422-1.337-10.101-4.037s-4.006-6.117-4.006-10.228 1.327-7.504 4.006-10.203 6.021-4.012 10.101-4.012zm30.694.173v6.513a14.85 14.85 0 0 0-2.089-.173c-4.817 0-7.201 2.377-7.201 7.652v14.314h-6.39V12.397h6.218v4.557a7.1 7.1 0 0 1 3.023-3.393 9.06 9.06 0 0 1 4.743-1.238 7.73 7.73 0 0 1 1.696.173zm8.725 11.119h14.229c-.023-.802-.206-1.59-.54-2.318s-.811-1.38-1.401-1.917c-1.204-1.139-2.949-1.709-5.21-1.709-2.064 0-3.736.594-4.989 1.783s-1.966 2.585-2.089 4.161zm14.991 6.983l5.824 1.709c-.835 2.452-2.384 4.482-4.669 6.092s-5.087 2.402-8.429 2.402c-4.129 0-7.618-1.312-10.494-3.913s-4.325-6.092-4.325-10.475c0-4.111 1.401-7.504 4.203-10.129 2.656-2.582 6.214-4.005 9.904-3.962 4.448 0 7.913 1.263 10.42 3.764s3.757 5.894 3.757 10.163c0 1.139-.049 1.808-.172 2.031H81.37a6.81 6.81 0 0 0 .67 2.762 6.76 6.76 0 0 0 1.738 2.24 8.15 8.15 0 0 0 5.505 1.981c3.713.015 6.146-1.545 7.252-4.666zm14.033 10.303h-6.488V0h6.537v16.468c.688-1.139 1.818-2.105 3.391-2.873a12.03 12.03 0 0 1 5.407-1.164c4.055 0 7.225 1.313 9.511 3.962s3.416 6.018 3.416 10.129c0 4.185-1.205 7.603-3.588 10.302s-5.579 4.012-9.56 4.012-6.857-1.412-8.626-4.259v4.324zm12.951-8.098c1.401-1.535 2.089-3.616 2.089-6.241s-.688-4.68-2.065-6.191-3.194-2.254-5.455-2.254c-2.188 0-3.982.743-5.407 2.254s-2.113 3.566-2.113 6.191.712 4.656 2.113 6.216 3.219 2.328 5.407 2.328c2.236 0 4.03-.768 5.431-2.303zm46.62 8.073h-27.967v-5.597l17.67-17.236h-17.965v-5.646h28.213v5.433L152.2 35.215h17.94v5.671-.01z" fill="#000"/><path d="M173.26 39.691c-.424-.414-.759-.911-.984-1.459s-.336-1.137-.325-1.729c-.011-.596.099-1.188.324-1.741s.561-1.053.985-1.472a4.25 4.25 0 0 1 1.454-1.006 4.24 4.24 0 0 1 1.737-.327 4.55 4.55 0 0 1 3.214 1.332c.853.852 1.333 2.007 1.334 3.212.014.595-.098 1.187-.327 1.736s-.573 1.044-1.007 1.452a4.43 4.43 0 0 1-1.474.981 4.44 4.44 0 0 1-1.74.328c-.593.011-1.182-.1-1.731-.325s-1.045-.56-1.46-.984z" fill="#bfbfbf"/></svg>