<svg xmlns="http://www.w3.org/2000/svg" width="18" height="18" fill="none" xmlns:v="https://vecta.io/nano"><g clip-path="url(#A)" fill="#000"><path d="M8.872 8.671a4.19 4.19 0 0 0 3.065-1.27c.842-.843 1.27-1.874 1.27-3.065a4.19 4.19 0 0 0-1.27-3.065C11.094.428 10.063 0 8.872 0a4.19 4.19 0 0 0-3.065 1.27 4.19 4.19 0 0 0-1.27 3.065A4.19 4.19 0 0 0 5.807 7.4c.843.842 1.874 1.27 3.065 1.27zm-2.32-6.655a3.13 3.13 0 0 1 2.319-.961 3.13 3.13 0 0 1 2.319.961 3.13 3.13 0 0 1 .961 2.319 3.13 3.13 0 0 1-.961 2.319 3.13 3.13 0 0 1-2.319.961 3.13 3.13 0 0 1-2.319-.961 3.13 3.13 0 0 1-.961-2.319 3.13 3.13 0 0 1 .961-2.319zm9.906 11.825a10.7 10.7 0 0 0-.146-1.137 8.85 8.85 0 0 0-.28-1.143 5.65 5.65 0 0 0-.47-1.066c-.203-.357-.441-.668-.709-.924-.28-.268-.622-.483-1.018-.64a3.52 3.52 0 0 0-1.3-.235c-.184 0-.361.075-.705.299l-.734.473c-.236.15-.555.291-.95.418a3.77 3.77 0 0 1-1.162.188c-.386 0-.776-.063-1.162-.188-.394-.127-.714-.268-.949-.418l-.735-.474c-.343-.223-.521-.299-.704-.299-.468 0-.905.079-1.3.236s-.738.372-1.018.64a4.02 4.02 0 0 0-.709.924 5.66 5.66 0 0 0-.47 1.067 9.06 9.06 0 0 0-.28 1.143 10.54 10.54 0 0 0-.146 1.138l-.036 1.063c0 .94.299 1.7.888 2.261.582.554 1.351.834 2.287.834h8.667c.936 0 1.706-.281 2.287-.834.589-.561.888-1.322.888-2.261l-.036-1.063zm-1.579 2.56c-.384.366-.895.544-1.56.544H4.652c-.666 0-1.176-.178-1.56-.543-.377-.359-.56-.849-.56-1.497l.033-.99c.022-.314.066-.658.132-1.024a7.96 7.96 0 0 1 .246-1.008 4.61 4.61 0 0 1 .383-.867 3 3 0 0 1 .521-.683c.181-.173.409-.315.677-.421.248-.098.528-.152.831-.16.037.02.103.057.209.127l.743.479c.311.199.713.378 1.192.533a4.81 4.81 0 0 0 1.486.239 4.84 4.84 0 0 0 1.486-.239c.48-.155.881-.334 1.193-.533l.742-.479.209-.127a2.43 2.43 0 0 1 .831.16c.268.106.496.248.677.421.193.185.369.415.521.683a4.64 4.64 0 0 1 .383.867 8.04 8.04 0 0 1 .246 1.008l.132 1.025h0l.034.99c0 .649-.183 1.138-.56 1.497z"/></g><defs><clipPath id="A"><path fill="#fff" d="M0 0h18v18H0z"/></clipPath></defs></svg>